<svg id="Layer_1" data-name="Layer 1" xmlns="http://www.w3.org/2000/svg" viewBox="0 0 133 108.5"><title>candy logo</title><polygon points="86.93 37.07 86.93 31.13 39.62 31.13 39.62 47.75 86.93 37.07" style="fill:#070606"/><polygon points="39.62 47.75 86.93 37.07 86.84 57.69 39.62 60.54 39.62 47.75" style="fill:#070606"/><polygon points="39.62 60.54 86.84 57.69 86.93 65.78 39.62 65.78 39.62 60.54" style="fill:#070606"/><polygon points="74.2 31.13 63.92 14.78 55.2 12.65 49.77 31.13 74.2 31.13" style="fill:#070606"/><polygon points="71.51 26.86 52.9 20.47 49.77 31.13 74.2 31.13 71.51 26.86" style="fill:#070606"/><polygon points="65.08 31.13 80.79 22.93 86.93 27.03 81.95 31.13 65.08 31.13" style="fill:#070606"/><polygon points="72.09 27.03 78.66 17.3 83.53 17.75 81.92 21.71 72.09 27.03" style="fill:#070606"/><polygon points="88.52 36.27 88.52 30.33 41.21 30.33 41.21 46.95 88.52 36.27" style="fill:#b3b3b3"/><polygon points="41.21 48.52 88.52 39.16 88.43 57.24 41.21 59.73 41.21 48.52" style="fill:#e5e5e5"/><polygon points="41.21 59.73 88.43 56.89 88.52 64.97 41.21 64.97 41.21 59.73" style="fill:#b08791"/><polygon points="75.79 30.33 65.51 13.98 56.78 11.85 51.36 30.33 75.79 30.33" style="fill:#b90036"/><polygon points="73.1 26.05 54.49 19.67 51.36 30.33 75.79 30.33 73.1 26.05" style="fill:#73001f"/><polygon points="66.67 30.33 82.38 22.12 88.52 26.23 83.54 30.33 66.67 30.33" style="fill:#488f72"/><polygon points="73.68 26.23 80.25 16.49 85.12 16.95 83.51 20.91 73.68 26.23" style="fill:#488f72"/><path d="M25,81.29a2.93,2.93,0,0,1-.6.89,5.59,5.59,0,0,1-1.3,1,9,9,0,0,1-2,.87,8.5,8.5,0,0,1-2.59.37,9.28,9.28,0,0,1-3.6-.63,7.19,7.19,0,0,1-2.5-1.67A6.76,6.76,0,0,1,11,79.79a7.91,7.91,0,0,1-.48-2.71A8.49,8.49,0,0,1,11,74.25a7.71,7.71,0,0,1,1.43-2.49A7,7,0,0,1,18,69.31a4.2,4.2,0,0,1,1.19.15,3.43,3.43,0,0,1,.92.42,3.52,3.52,0,0,1,.56-1.46.26.26,0,0,1,.21-.15c.05,0,.08,0,.08.1a.44.44,0,0,1-.06.17,2.38,2.38,0,0,0-.32.66,8.72,8.72,0,0,0-.22.86,2.6,2.6,0,0,1,.58.62,4.27,4.27,0,0,1,.38.71,3.51,3.51,0,0,1,.22.74,4.08,4.08,0,0,1,.07.72,2.63,2.63,0,0,1-.19,1.07c-.13.29-.29.43-.5.43a.58.58,0,0,1-.44-.21,1.63,1.63,0,0,1-.32-.57,3.92,3.92,0,0,1-.18-.82,7.89,7.89,0,0,1-.06-1c0-.23,0-.46,0-.7a5.79,5.79,0,0,1,.08-.68,3,3,0,0,0-.94-.56,3.69,3.69,0,0,0-1.31-.21,5.4,5.4,0,0,0-2.61.63,6,6,0,0,0-1.94,1.65A7.51,7.51,0,0,0,12,74.25a8.9,8.9,0,0,0-.41,2.68A8.53,8.53,0,0,0,12,79.59a6.46,6.46,0,0,0,3.59,4,7.82,7.82,0,0,0,3.26.63,8.15,8.15,0,0,0,1.3-.13,8.86,8.86,0,0,0,1.66-.46,7.35,7.35,0,0,0,1.66-.89,4.29,4.29,0,0,0,1.28-1.43.71.71,0,0,1,.1-.14.16.16,0,0,1,.12-.07C25,81,25,81.13,25,81.29ZM21.11,73a4,4,0,0,0-.19-1.13,3.11,3.11,0,0,0-.67-1.17,9.54,9.54,0,0,0-.06,1.06,5.55,5.55,0,0,0,.16,1.43q.16.6.49.61c.08,0,.14-.07.19-.22A1.76,1.76,0,0,0,21.11,73Z"/><path d="M36.11,80.1l-.29.59a6.21,6.21,0,0,1-.35.59,8,8,0,0,1-2,2.17,3.33,3.33,0,0,1-1.87.71,1.82,1.82,0,0,1-1.67-1,4.61,4.61,0,0,1-1.51,1,4.27,4.27,0,0,1-1.64.35,3.05,3.05,0,0,1-.91-.13,2,2,0,0,1-1.26-1.12,2.47,2.47,0,0,1-.19-1,3.5,3.5,0,0,1,.32-1.41,4.46,4.46,0,0,1,.88-1.31,4.88,4.88,0,0,1,1.34-1,3.69,3.69,0,0,1,1.67-.38,2.58,2.58,0,0,1,1.13.2q.4.2.4.38a.12.12,0,0,1-.08.12.3.3,0,0,1-.13,0l0,0h0a1.88,1.88,0,0,0-.52-.34,2.22,2.22,0,0,0-.85-.12,2.88,2.88,0,0,0-1.36.32,3.33,3.33,0,0,0-1,.83,3.88,3.88,0,0,0-.65,1.13,3.43,3.43,0,0,0-.23,1.21,2.22,2.22,0,0,0,.55,1.67,1.87,1.87,0,0,0,1.34.52,3.27,3.27,0,0,0,1.37-.33,4,4,0,0,0,1.27-.92,3.68,3.68,0,0,1-.23-.81,5.82,5.82,0,0,1-.08-1,2.81,2.81,0,0,1,.27-1.27.84.84,0,0,1,.77-.54q.69,0,.69.81A4.31,4.31,0,0,1,31,81.45a4.45,4.45,0,0,1-.62,1.17,1.65,1.65,0,0,0,1.5,1A2.7,2.7,0,0,0,33.45,83a7.41,7.41,0,0,0,1.64-1.79,5.52,5.52,0,0,0,.35-.6l.31-.62Zm-5.19,0a1,1,0,0,0-.1-.47.32.32,0,0,0-.31-.18.54.54,0,0,0-.5.32,1.52,1.52,0,0,0-.15.8,5,5,0,0,0,.37,1.71,3.51,3.51,0,0,0,.51-1A3.74,3.74,0,0,0,30.92,80.12Z"/><path d="M46.13,80.1l-.29.59a6.11,6.11,0,0,1-.35.59,8,8,0,0,1-2,2.17,3.33,3.33,0,0,1-1.87.71,2.29,2.29,0,0,1-.87-.16,1.56,1.56,0,0,1-.7-.61,3.61,3.61,0,0,1-.47-1.24,10,10,0,0,1-.17-2.07c0-.13,0-.19-.06-.19s-.15.11-.31.32-.33.47-.54.79-.42.66-.63,1l-.62,1.08-.52.87-.28.43a.33.33,0,0,1-.23.12.41.41,0,0,1-.31-.14.41.41,0,0,1-.13-.24v-.33q0-.29,0-.69t0-.88q0-.48,0-.93c0-.3,0-.57,0-.8V80a.72.72,0,0,0-.07-.29.76.76,0,0,1-.07-.31.68.68,0,0,1,.14-.31.44.44,0,0,1,.38-.21.29.29,0,0,1,.13.08l.09.12a.4.4,0,0,1,0,.21q0,1.4.06,2.29t0,1.38q0,.5,0,.87a1.45,1.45,0,0,0,.19-.29l.42-.72.54-.94.55-1,.44-.79.22-.39a2.85,2.85,0,0,1,.44-.66.49.49,0,0,1,.31-.16.27.27,0,0,1,.29.21,2,2,0,0,1,.06.52q0,.15,0,.31c0,.1,0,.21,0,.33a6.87,6.87,0,0,0,.14,1.5,3.38,3.38,0,0,0,.4,1,1.68,1.68,0,0,0,.62.61,1.54,1.54,0,0,0,.74.19A2.7,2.7,0,0,0,43.47,83a7.42,7.42,0,0,0,1.64-1.79,5.69,5.69,0,0,0,.35-.6l.31-.62Z"/><path d="M58.44,80.1c-.09.19-.19.38-.3.58l-.34.6a5.53,5.53,0,0,1-1.7,1.87,3.75,3.75,0,0,1-2.11.67,3.37,3.37,0,0,1-1.36-.29,3.78,3.78,0,0,1-1.24-.9,5.56,5.56,0,0,1-1.49,1.28,3.5,3.5,0,0,1-1.78.47,4,4,0,0,1-1.36-.2,2.67,2.67,0,0,1-.92-.53,2,2,0,0,1-.52-.77,2.65,2.65,0,0,1-.16-.92,3.52,3.52,0,0,1,.25-1.28,4.47,4.47,0,0,1,.69-1.19,4.38,4.38,0,0,1,1-.93,3,3,0,0,1,1.31-.46h0c.06,0,.1,0,.1.12s-.08.16-.23.17a3,3,0,0,0-1.06.45,3.06,3.06,0,0,0-.77.75,3.44,3.44,0,0,0-.47.93,3.2,3.2,0,0,0-.16,1,2.7,2.7,0,0,0,.15.91,2.32,2.32,0,0,0,.45.77,2.14,2.14,0,0,0,.76.54,2.66,2.66,0,0,0,1.08.2,2.91,2.91,0,0,0,1.53-.42,5.06,5.06,0,0,0,1.3-1.15,7.72,7.72,0,0,1-1.31-2.74,16.13,16.13,0,0,1-.5-4.37,14.06,14.06,0,0,1,.21-2.46,9.15,9.15,0,0,1,.62-2.11,4.41,4.41,0,0,1,1-1.46,1.9,1.9,0,0,1,1.34-.55,1.26,1.26,0,0,1,.87.33,2.47,2.47,0,0,1,.61.9,5.71,5.71,0,0,1,.36,1.36,11.46,11.46,0,0,1,.12,1.68,17.07,17.07,0,0,1-.16,2.3,19.53,19.53,0,0,1-.48,2.39,17.09,17.09,0,0,1-.79,2.3,11.74,11.74,0,0,1-1.09,2,3.88,3.88,0,0,0,1.19,1,3.19,3.19,0,0,0,1.48.35A2.46,2.46,0,0,0,56,82.81a5.77,5.77,0,0,0,1.43-1.6,5.6,5.6,0,0,0,.35-.6l.31-.62ZM54,73a11.34,11.34,0,0,0-.1-1.53,5.62,5.62,0,0,0-.29-1.21,2.22,2.22,0,0,0-.48-.8.94.94,0,0,0-.69-.29,1.59,1.59,0,0,0-1.12.46,3.58,3.58,0,0,0-.82,1.23A7.7,7.7,0,0,0,50,72.62a13.49,13.49,0,0,0-.16,2.13,15.78,15.78,0,0,0,.12,1.88,14.46,14.46,0,0,0,.35,1.86,10.54,10.54,0,0,0,.59,1.7,7.2,7.2,0,0,0,.84,1.43,11,11,0,0,0,1-1.94,18.13,18.13,0,0,0,.71-2.23,19.41,19.41,0,0,0,.43-2.31A17.67,17.67,0,0,0,54,73Z"/><path d="M67.7,80.1a12.35,12.35,0,0,1-.63,1.17,25.44,25.44,0,0,1-1.58,2.21q-.79,1-1.56,1.85.23.81.5,1.58t.5,1.56a16.57,16.57,0,0,1,.38,1.62,9.48,9.48,0,0,1,.15,1.73,5.78,5.78,0,0,1-.31,2,4.17,4.17,0,0,1-.81,1.38,3.13,3.13,0,0,1-1.13.81,3.33,3.33,0,0,1-1.27.26,3.07,3.07,0,0,1-1.11-.2,3,3,0,0,1-.94-.58,2.76,2.76,0,0,1-.66-.93A3.07,3.07,0,0,1,59,93.27a6.61,6.61,0,0,1,.37-2.21,9.69,9.69,0,0,1,1-2,15.36,15.36,0,0,1,1.38-1.85q.78-.9,1.61-1.78-.21-.83-.35-1.61a8.73,8.73,0,0,1-.13-1.49,2.8,2.8,0,0,1-.17.43,3.12,3.12,0,0,1-.46.7,3.28,3.28,0,0,1-.76.65,2,2,0,0,1-1.09.29,1.57,1.57,0,0,1-1.2-.48,3.34,3.34,0,0,1-.7-1.17,6,6,0,0,1-.33-1.45q-.08-.76-.08-1.3v-.35a1.34,1.34,0,0,1,0-.25.53.53,0,0,1,.18-.33.46.46,0,0,1,.3-.15q.13,0,.13.17,0,.58,0,1.38A6.87,6.87,0,0,0,59,82a3.4,3.4,0,0,0,.63,1.23,1.44,1.44,0,0,0,1.17.51,1.47,1.47,0,0,0,1-.3,2.57,2.57,0,0,0,.58-.64,3,3,0,0,0,.37-.92c0-.15,0-.33-.06-.52a4.67,4.67,0,0,1,0-.59q0-.34,0-.72a2.4,2.4,0,0,1,.06-.59,1.14,1.14,0,0,1,.13-.34.41.41,0,0,1,.16-.15.41.41,0,0,1,.16,0,.44.44,0,0,1,.28.16.52.52,0,0,1,.11.39l-.12,2.06a7,7,0,0,0,.1,1.74q.15.82.37,1.59.81-.87,1.55-1.77a13.64,13.64,0,0,0,1.32-1.92l.34-.61.32-.61ZM65,92.12a5.91,5.91,0,0,0-.15-1.24q-.15-.7-.38-1.51T64,87.68q-.28-.88-.53-1.79L62,87.57a12.42,12.42,0,0,0-1.2,1.63,8.14,8.14,0,0,0-.81,1.73,6.36,6.36,0,0,0-.3,2A2.43,2.43,0,0,0,59.89,94a2.7,2.7,0,0,0,.64.85,3.11,3.11,0,0,0,.9.56,2.69,2.69,0,0,0,1,.2,2.41,2.41,0,0,0,1-.19,2.24,2.24,0,0,0,.82-.62,3.07,3.07,0,0,0,.58-1.09A5.32,5.32,0,0,0,65,92.12Z"/><path d="M86.53,79.35v.06a.06.06,0,0,1,0,0,8.39,8.39,0,0,1-1.93,1.85,8.07,8.07,0,0,1-1.74.88l-.08,1.64q0,.82-.08,1.72.46.48.9,1a10.28,10.28,0,0,1,.81,1.15A6.32,6.32,0,0,1,85,89a4.39,4.39,0,0,1,.22,1.39,6,6,0,0,1-.12,1.21,4.13,4.13,0,0,1-.32,1,2,2,0,0,1-.47.64.85.85,0,0,1-.56.23,1,1,0,0,1-.71-.27,2.27,2.27,0,0,1-.47-.62,3.18,3.18,0,0,1-.27-.72l-.12-.54c0-.26-.07-.6-.1-1s0-.92,0-1.48,0-1,0-1.61,0-1.18,0-1.8q-.69-.69-1.21-1.24a1.53,1.53,0,0,1-.52-1,.69.69,0,0,1,.13-.45,1,1,0,0,1,.38-.27,2.8,2.8,0,0,1,.59-.17q.35-.07.77-.18,0-.81.07-1.57t.07-1.49a7.13,7.13,0,0,1-1.88,1.19,5.81,5.81,0,0,1-2.35.46,5.94,5.94,0,0,1-2.22-.37,4.24,4.24,0,0,1-1.54-1,4.15,4.15,0,0,1-.9-1.5,5.42,5.42,0,0,1-.3-1.8,7.1,7.1,0,0,1,.52-2.6A7.62,7.62,0,0,1,75.18,71a7.77,7.77,0,0,1,2.41-1.75,7.49,7.49,0,0,1,3.26-.68,4.2,4.2,0,0,1,2,.44,3.93,3.93,0,0,1,2,2.42.12.12,0,0,1-.13.13l-.13,0-.08,0c-.08,0-.14-.09-.2-.23l-.22-.51a5.94,5.94,0,0,0-.35-.64,2.31,2.31,0,0,0-.6-.63,3.31,3.31,0,0,0-1-.48,5.06,5.06,0,0,0-1.51-.19,6.2,6.2,0,0,0-2.85.63,6.61,6.61,0,0,0-2.07,1.61,6.92,6.92,0,0,0-1.27,2.2,7.24,7.24,0,0,0-.43,2.43,5.85,5.85,0,0,0,.27,1.79,4.45,4.45,0,0,0,.81,1.5,3.83,3.83,0,0,0,1.37,1,4.56,4.56,0,0,0,1.94.38A5.21,5.21,0,0,0,80.65,80a6.23,6.23,0,0,0,1.72-1.15q0-.94.06-1.77t0-1.46q0-.6,0-1.22a5.47,5.47,0,0,1,.2-1.14,2.28,2.28,0,0,1,.43-.85.9.9,0,0,1,.72-.33,1,1,0,0,1,.9.46A2.22,2.22,0,0,1,85,73.74a5,5,0,0,1-.13,1.1A7.22,7.22,0,0,1,84.52,76a8.21,8.21,0,0,1-.65,1.23A9.06,9.06,0,0,1,83,78.45q0,.94,0,1.79t-.07,1.69a8.89,8.89,0,0,0,1.6-.81,8.52,8.52,0,0,0,1.83-1.63c.09-.12.16-.17.21-.17A0,0,0,0,1,86.53,79.35Zm-4.31,3-1.08.29q-.4.1-.4.38a1.38,1.38,0,0,0,.39.82q.39.47,1,1.07,0-.63.06-1.27T82.22,82.39ZM85,90.54a4.47,4.47,0,0,0-.19-1.32A6.15,6.15,0,0,0,84.25,88,7.6,7.6,0,0,0,83.52,87q-.41-.51-.84-1,0,.44,0,.91v1q0,1.42.06,3.12a3.25,3.25,0,0,0,.39,1.7q.36.51.72.51a.61.61,0,0,0,.52-.36A3.58,3.58,0,0,0,84.7,92a5.83,5.83,0,0,0,.19-.88A5.34,5.34,0,0,0,85,90.54Zm-.23-16.81a2.14,2.14,0,0,0-.2-1,.63.63,0,0,0-.59-.38q-.35,0-.53.54a6.68,6.68,0,0,0-.28,1.25A12.89,12.89,0,0,0,83,75.52c0,.45,0,.76,0,.94l0,1.71a7.7,7.7,0,0,0,.77-1.12,8.78,8.78,0,0,0,.55-1.17,7,7,0,0,0,.33-1.13A5.37,5.37,0,0,0,84.72,73.74Z"/><path d="M96.85,80.1l-.29.59a6.11,6.11,0,0,1-.35.59,9.56,9.56,0,0,1-1.83,2.16,2.61,2.61,0,0,1-1.58.7q-1.12,0-1.63-1.58a1.22,1.22,0,0,1-.16.29,4.73,4.73,0,0,1-.51.64,3.77,3.77,0,0,1-.79.64,1.88,1.88,0,0,1-1,.29,2,2,0,0,1-1.16-.33,2.5,2.5,0,0,1-.76-.84,3.81,3.81,0,0,1-.41-1.12,6,6,0,0,1-.12-1.19,4.51,4.51,0,0,1,.17-1.33c.12-.37.26-.56.42-.56a.4.4,0,0,1,.17,0s.06.07.06.14a2.36,2.36,0,0,1-.07.51,4.14,4.14,0,0,0-.07.86,10,10,0,0,0,.06,1,3.26,3.26,0,0,0,.28,1,2,2,0,0,0,.66.8,2,2,0,0,0,1.21.32,1.47,1.47,0,0,0,1-.3,2.57,2.57,0,0,0,.58-.64,3,3,0,0,0,.37-.92q0-.23-.06-.52a4.77,4.77,0,0,1,0-.59q0-.34,0-.72a2.4,2.4,0,0,1,.06-.59,1.15,1.15,0,0,1,.13-.34.41.41,0,0,1,.16-.15.32.32,0,0,1,.43.13.62.62,0,0,1,.12.39c0,.08,0,.2,0,.36s0,.33,0,.52,0,.38,0,.58,0,.39,0,.57a4.38,4.38,0,0,0,.51,1.65,1,1,0,0,0,.84.52,2,2,0,0,0,1.27-.65,10.59,10.59,0,0,0,1.52-1.85,5.69,5.69,0,0,0,.35-.6l.31-.62Z"/><path d="M104.43,80.1l-.28.59a3.75,3.75,0,0,1-.36.59,6.66,6.66,0,0,1-2.14,2,4.66,4.66,0,0,1-2.3.68,3.06,3.06,0,0,1-1.13-.21,2.43,2.43,0,0,1-.92-.63,3.16,3.16,0,0,1-.62-1.06,4.39,4.39,0,0,1-.23-1.5,4.17,4.17,0,0,1,.64-2.19,2.79,2.79,0,0,1,.69-.75,1.39,1.39,0,0,1,.84-.29,1.25,1.25,0,0,1,1,.41,1.64,1.64,0,0,1,.33,1,4.1,4.1,0,0,1-.53,1.87,6.54,6.54,0,0,1-1.51,1.88,2.47,2.47,0,0,0,.85.62,2.54,2.54,0,0,0,1,.21,3.7,3.7,0,0,0,1.81-.53,5.78,5.78,0,0,0,1.77-1.64,2.88,2.88,0,0,0,.36-.59c.1-.21.2-.42.3-.62Zm-4.86-1.19a1.36,1.36,0,0,0-.26-.86,1,1,0,0,0-.84-.34.89.89,0,0,0-.56.19,1.59,1.59,0,0,0-.42.51,2.86,2.86,0,0,0-.27.74,4,4,0,0,0-.1.88,4.68,4.68,0,0,0,.16,1.3,3.14,3.14,0,0,0,.47,1,4.49,4.49,0,0,0,.73-.75,5.93,5.93,0,0,0,.57-.88,5.09,5.09,0,0,0,.38-.92A3.09,3.09,0,0,0,99.56,78.91Z"/><path d="M112,80.1l-.28.59a3.75,3.75,0,0,1-.36.59,6.66,6.66,0,0,1-2.14,2,4.66,4.66,0,0,1-2.3.68,3.06,3.06,0,0,1-1.13-.21,2.43,2.43,0,0,1-.92-.63,3.16,3.16,0,0,1-.62-1.06,4.39,4.39,0,0,1-.23-1.5,4.17,4.17,0,0,1,.64-2.19,2.79,2.79,0,0,1,.69-.75,1.39,1.39,0,0,1,.84-.29,1.25,1.25,0,0,1,1,.41,1.64,1.64,0,0,1,.33,1,4.1,4.1,0,0,1-.53,1.87,6.54,6.54,0,0,1-1.51,1.88,2.47,2.47,0,0,0,.85.62,2.54,2.54,0,0,0,1,.21,3.7,3.7,0,0,0,1.81-.53A5.78,5.78,0,0,0,111,81.22a2.88,2.88,0,0,0,.36-.59c.1-.21.2-.42.3-.62Zm-4.86-1.19a1.36,1.36,0,0,0-.26-.86,1,1,0,0,0-.84-.34.89.89,0,0,0-.56.19,1.59,1.59,0,0,0-.42.51,2.86,2.86,0,0,0-.27.74,4,4,0,0,0-.1.88,4.68,4.68,0,0,0,.16,1.3,3.14,3.14,0,0,0,.47,1,4.49,4.49,0,0,0,.73-.75,5.93,5.93,0,0,0,.57-.88,5.09,5.09,0,0,0,.38-.92A3.09,3.09,0,0,0,107.14,78.91Z"/><path d="M122,80.1l-.29.59a6.11,6.11,0,0,1-.35.59,8,8,0,0,1-2,2.17,3.33,3.33,0,0,1-1.87.71,2.29,2.29,0,0,1-.87-.16,1.56,1.56,0,0,1-.7-.61,3.61,3.61,0,0,1-.47-1.24,10,10,0,0,1-.17-2.07c0-.13,0-.19-.06-.19s-.15.11-.31.32-.33.47-.54.79-.42.66-.63,1l-.62,1.08-.52.87-.28.43a.33.33,0,0,1-.23.12.41.41,0,0,1-.31-.14.41.41,0,0,1-.13-.24v-.33q0-.29,0-.69t0-.88q0-.48,0-.93c0-.3,0-.57,0-.8V80a.72.72,0,0,0-.07-.29.76.76,0,0,1-.07-.31.68.68,0,0,1,.14-.31.44.44,0,0,1,.38-.21.29.29,0,0,1,.13.08l.09.12a.4.4,0,0,1,0,.21q0,1.4.06,2.29t0,1.38q0,.5,0,.87a1.45,1.45,0,0,0,.19-.29l.42-.72.54-.94.55-1,.44-.79.22-.39a2.85,2.85,0,0,1,.44-.66.49.49,0,0,1,.31-.16.27.27,0,0,1,.29.21,2,2,0,0,1,.06.52q0,.15,0,.31c0,.1,0,.21,0,.33a6.87,6.87,0,0,0,.14,1.5,3.38,3.38,0,0,0,.4,1,1.68,1.68,0,0,0,.62.61,1.54,1.54,0,0,0,.74.19,2.7,2.7,0,0,0,1.57-.62A7.42,7.42,0,0,0,121,81.22a5.69,5.69,0,0,0,.35-.6l.31-.62Z"/></svg>